<svg width="40" height="40" viewBox="0 0 40 40" fill="none" xmlns="http://www.w3.org/2000/svg">
<circle cx="20" cy="20" r="20" fill="#049DBF"/>
<path d="M20.413 12.4459C20.413 12.2312 20.3277 12.0253 20.1759 11.8735C20.0242 11.7217 19.8183 11.6365 19.6036 11.6365C19.389 11.6365 19.1831 11.7217 19.0313 11.8735C18.8795 12.0253 18.7942 12.2312 18.7942 12.4459V19.1907H12.0494C11.8347 19.1907 11.6288 19.276 11.4771 19.4278C11.3253 19.5796 11.24 19.7854 11.24 20.0001C11.24 20.2148 11.3253 20.4206 11.4771 20.5724C11.6288 20.7242 11.8347 20.8095 12.0494 20.8095H18.7942V27.5544C18.7942 27.769 18.8795 27.9749 19.0313 28.1267C19.1831 28.2785 19.389 28.3637 19.6036 28.3637C19.8183 28.3637 20.0242 28.2785 20.1759 28.1267C20.3277 27.9749 20.413 27.769 20.413 27.5544V20.8095H27.1579C27.3725 20.8095 27.5784 20.7242 27.7302 20.5724C27.882 20.4206 27.9673 20.2148 27.9673 20.0001C27.9673 19.7854 27.882 19.5796 27.7302 19.4278C27.5784 19.276 27.3725 19.1907 27.1579 19.1907H20.413V12.4459Z" fill="white"/>
</svg>
