<svg width="40" height="40" viewBox="0 0 40 40" fill="none" xmlns="http://www.w3.org/2000/svg">
<circle cx="20" cy="20" r="20" fill="#FF0000"/>
<path d="M12.2925 12.6992C12.3986 12.5928 12.5247 12.5084 12.6635 12.4508C12.8023 12.3932 12.9511 12.3635 13.1014 12.3635C13.2517 12.3635 13.4005 12.3932 13.5394 12.4508C13.6782 12.5084 13.8043 12.5928 13.9104 12.6992L19.9571 18.7482L26.0038 12.6992C26.11 12.593 26.2361 12.5087 26.3749 12.4512C26.5137 12.3937 26.6625 12.3641 26.8127 12.3641C26.963 12.3641 27.1117 12.3937 27.2505 12.4512C27.3893 12.5087 27.5155 12.593 27.6217 12.6992C27.7279 12.8054 27.8122 12.9316 27.8697 13.0704C27.9272 13.2092 27.9568 13.3579 27.9568 13.5082C27.9568 13.6584 27.9272 13.8072 27.8697 13.946C27.8122 14.0848 27.7279 14.2109 27.6217 14.3171L21.5727 20.3638L27.6217 26.4105C27.7279 26.5167 27.8122 26.6429 27.8697 26.7817C27.9272 26.9205 27.9568 27.0692 27.9568 27.2195C27.9568 27.3697 27.9272 27.5185 27.8697 27.6573C27.8122 27.7961 27.7279 27.9222 27.6217 28.0284C27.5155 28.1347 27.3893 28.2189 27.2505 28.2764C27.1117 28.3339 26.963 28.3635 26.8127 28.3635C26.6625 28.3635 26.5137 28.3339 26.3749 28.2764C26.2361 28.2189 26.11 28.1347 26.0038 28.0284L19.9571 21.9795L13.9104 28.0284C13.8042 28.1347 13.6781 28.2189 13.5392 28.2764C13.4004 28.3339 13.2517 28.3635 13.1014 28.3635C12.9512 28.3635 12.8024 28.3339 12.6636 28.2764C12.5248 28.2189 12.3987 28.1347 12.2925 28.0284C12.1862 27.9222 12.102 27.7961 12.0445 27.6573C11.987 27.5185 11.9574 27.3697 11.9574 27.2195C11.9574 27.0692 11.987 26.9205 12.0445 26.7817C12.102 26.6429 12.1862 26.5167 12.2925 26.4105L18.3414 20.3638L12.2925 14.3171C12.1861 14.211 12.1016 14.0849 12.044 13.9461C11.9864 13.8073 11.9568 13.6585 11.9568 13.5082C11.9568 13.3579 11.9864 13.2091 12.044 13.0703C12.1016 12.9314 12.1861 12.8053 12.2925 12.6992Z" fill="white"/>
</svg>
