<svg width="40" height="40" viewBox="0 0 40 40" fill="none" xmlns="http://www.w3.org/2000/svg">
<circle cx="20" cy="20" r="20" fill="#049DBF"/>
<path d="M12.6425 24C12.6925 24 12.7425 23.995 12.7925 23.9875L16.9975 23.25C17.0475 23.24 17.095 23.2175 17.13 23.18L27.7275 12.5825C27.7507 12.5594 27.7691 12.5319 27.7816 12.5017C27.7942 12.4714 27.8006 12.439 27.8006 12.4062C27.8006 12.3735 27.7942 12.3411 27.7816 12.3108C27.7691 12.2806 27.7507 12.2531 27.7275 12.23L23.5725 8.0725C23.525 8.025 23.4625 8 23.395 8C23.3275 8 23.265 8.025 23.2175 8.0725L12.62 18.67C12.5825 18.7075 12.56 18.7525 12.55 18.8025L11.8125 23.0075C11.7882 23.1414 11.7969 23.2793 11.8378 23.4091C11.8788 23.5389 11.9507 23.6568 12.0475 23.7525C12.2125 23.9125 12.42 24 12.6425 24ZM14.3275 19.64L23.395 10.575L25.2275 12.4075L16.16 21.4725L13.9375 21.865L14.3275 19.64ZM28.2 26.1H9.8C9.3575 26.1 9 26.4575 9 26.9V27.8C9 27.91 9.09 28 9.2 28H28.8C28.91 28 29 27.91 29 27.8V26.9C29 26.4575 28.6425 26.1 28.2 26.1Z" fill="white"/>
</svg>
