<svg width="40" height="40" viewBox="0 0 40 40" fill="none" xmlns="http://www.w3.org/2000/svg">
<circle cx="20" cy="20" r="20" fill="#049DBF"/>
<path d="M31.624 19.7191C30.7115 17.2048 29.1275 15.0304 27.0677 13.4646C25.0078 11.8989 22.5625 11.0105 20.0338 10.9092C17.5052 11.0105 15.0598 11.8989 13 13.4646C10.9401 15.0304 9.35612 17.2048 8.44368 19.7191C8.38206 19.9007 8.38206 20.0995 8.44368 20.2811C9.35612 22.7954 10.9401 24.9698 13 26.5356C15.0598 28.1013 17.5052 28.9897 20.0338 29.091C22.5625 28.9897 25.0078 28.1013 27.0677 26.5356C29.1275 24.9698 30.7115 22.7954 31.624 20.2811C31.6856 20.0995 31.6856 19.9007 31.624 19.7191ZM20.0338 27.4381C15.9222 27.4381 11.5778 24.1902 10.003 20.0001C11.5778 15.81 15.9222 12.5621 20.0338 12.5621C24.1455 12.5621 28.4898 15.81 30.0647 20.0001C28.4898 24.1902 24.1455 27.4381 20.0338 27.4381Z" fill="white"/>
<path d="M20.0336 15.0413C19.113 15.0413 18.213 15.3321 17.4476 15.8769C16.6821 16.4218 16.0855 17.1963 15.7332 18.1023C15.3809 19.0084 15.2887 20.0054 15.4683 20.9673C15.6479 21.9292 16.0913 22.8128 16.7422 23.5063C17.3932 24.1997 18.2226 24.672 19.1255 24.8633C20.0284 25.0547 20.9643 24.9565 21.8149 24.5812C22.6654 24.2058 23.3923 23.5703 23.9038 22.7548C24.4153 21.9394 24.6883 20.9807 24.6883 19.9999C24.6883 18.6848 24.1979 17.4236 23.3249 16.4936C22.452 15.5637 21.2681 15.0413 20.0336 15.0413ZM20.0336 23.3057C19.4198 23.3057 18.8199 23.1118 18.3096 22.7486C17.7993 22.3854 17.4015 21.8691 17.1667 21.265C16.9318 20.661 16.8704 19.9963 16.9901 19.355C17.1098 18.7138 17.4054 18.1247 17.8393 17.6624C18.2733 17.2001 18.8263 16.8852 19.4282 16.7577C20.0301 16.6301 20.6541 16.6956 21.2211 16.9458C21.7881 17.196 22.2728 17.6197 22.6137 18.1633C22.9547 18.707 23.1367 19.3461 23.1367 19.9999C23.1367 20.8767 22.8098 21.7175 22.2278 22.3375C21.6459 22.9574 20.8566 23.3057 20.0336 23.3057Z" fill="white"/>
</svg>
