<svg width="635" height="14" viewBox="0 0 635 14" fill="none" xmlns="http://www.w3.org/2000/svg">
<path d="M290.988 13.216C289.74 13.216 288.648 12.94 287.712 12.388C286.776 11.836 286.044 11.074 285.516 10.102C284.988 9.118 284.724 7.984 284.724 6.7C284.724 5.416 284.988 4.288 285.516 3.316C286.044 2.332 286.776 1.564 287.712 1.012C288.648 0.46 289.74 0.184 290.988 0.184C292.236 0.184 293.328 0.46 294.264 1.012C295.2 1.564 295.926 2.332 296.442 3.316C296.97 4.288 297.234 5.416 297.234 6.7C297.234 7.984 296.97 9.118 296.442 10.102C295.926 11.074 295.2 11.836 294.264 12.388C293.328 12.94 292.236 13.216 290.988 13.216ZM290.988 11.506C291.852 11.506 292.602 11.314 293.238 10.93C293.886 10.546 294.39 9.994 294.75 9.274C295.11 8.554 295.29 7.696 295.29 6.7C295.29 5.704 295.11 4.846 294.75 4.126C294.39 3.406 293.886 2.854 293.238 2.47C292.602 2.086 291.852 1.894 290.988 1.894C290.124 1.894 289.368 2.086 288.72 2.47C288.072 2.854 287.568 3.406 287.208 4.126C286.86 4.846 286.686 5.704 286.686 6.7C286.686 7.696 286.86 8.554 287.208 9.274C287.568 9.994 288.072 10.546 288.72 10.93C289.368 11.314 290.124 11.506 290.988 11.506ZM304.075 13.216C303.175 13.216 302.359 13.042 301.627 12.694C300.907 12.334 300.331 11.788 299.899 11.056C299.479 10.324 299.269 9.394 299.269 8.266V0.399999H301.177V8.284C301.177 9.388 301.441 10.198 301.969 10.714C302.497 11.23 303.211 11.488 304.111 11.488C304.999 11.488 305.707 11.23 306.235 10.714C306.763 10.198 307.027 9.388 307.027 8.284V0.399999H308.935V8.266C308.935 9.394 308.713 10.324 308.269 11.056C307.837 11.788 307.249 12.334 306.505 12.694C305.773 13.042 304.963 13.216 304.075 13.216Z" fill="black" fill-opacity="0.5"/>
<line x1="338" y1="6.5" x2="635" y2="6.5" stroke="black" stroke-opacity="0.5"/>
<line y1="6.5" x2="260" y2="6.5" stroke="black" stroke-opacity="0.5"/>
</svg>
