<svg width="55" height="55" viewBox="0 0 55 55" fill="none" xmlns="http://www.w3.org/2000/svg">
<path d="M54.9973 27.4093C54.9478 12.2619 42.6508 0 27.5014 0C12.3465 0 0.0522106 12.2619 0.00274774 27.4093L0 27.3379V27.6457L0.00274774 27.5824C0.0494627 42.7326 12.3437 55 27.5014 55C42.6535 55 54.9478 42.7381 54.9973 27.5907L55 27.6621V27.3379L54.9973 27.4093ZM20.0077 40.0037C13.1132 40.0037 7.51012 34.4004 7.51012 27.5028C7.51012 20.6051 13.1132 15.0017 20.0077 15.0017C23.3877 15.0017 26.2126 16.2411 28.378 18.2665L24.8194 21.7153C23.9263 20.8661 22.349 19.8658 20.0077 19.8658C15.8721 19.8658 12.4976 23.3037 12.4976 27.5192C12.4976 31.732 15.8748 35.1699 20.0077 35.1699C24.7947 35.1699 26.5588 31.8557 26.8831 29.8936H20.0022V25.2273H31.6947C31.8761 26.0133 32.0107 26.7498 32.0107 27.7885C32.0107 34.9253 27.2238 40.0037 20.0077 40.0037ZM48.7457 28.7504H43.7472V33.7491H39.999V28.7504H34.9978V25.002H39.999V20.0005H43.7472V25.002H48.7457V28.7504Z" fill="#FA591E"/>
</svg>
