<svg width="44" height="42" viewBox="0 0 44 42" fill="none" xmlns="http://www.w3.org/2000/svg">
<path d="M43.1896 28.7042L41.8771 27.6833C41.9057 27.4846 41.9217 27.2842 41.925 27.0833C41.9273 26.8815 41.9105 26.6799 41.875 26.4813L43.1771 25.4604C43.2323 25.4134 43.2698 25.349 43.2834 25.2778C43.2971 25.2066 43.286 25.1328 43.2521 25.0688L42.023 22.9438C41.9858 22.8796 41.927 22.8308 41.8572 22.806C41.7874 22.7812 41.711 22.782 41.6417 22.8083L40.1209 23.4229C39.8031 23.1729 39.4508 22.9701 39.075 22.8208L38.8417 21.2C38.8335 21.1282 38.7988 21.062 38.7446 21.0143C38.6903 20.9666 38.6202 20.9407 38.548 20.9417H36.0896C36.0165 20.9424 35.9459 20.9686 35.8901 21.0158C35.8342 21.0629 35.7964 21.1281 35.7834 21.2L35.55 22.8208C35.1793 22.9787 34.8295 23.1816 34.5084 23.425L32.9834 22.8083C32.9139 22.7837 32.8381 22.7837 32.7687 22.8084C32.6993 22.833 32.6405 22.8808 32.6021 22.9438L31.373 25.0688C31.3356 25.1323 31.3226 25.2073 31.3364 25.2797C31.3502 25.3522 31.3899 25.4171 31.448 25.4625L32.75 26.4833C32.701 26.8825 32.701 27.2862 32.75 27.6854L31.448 28.7063C31.3931 28.7536 31.356 28.8181 31.3428 28.8893C31.3295 28.9605 31.3409 29.0341 31.375 29.0979L32.6042 31.2229C32.6413 31.2866 32.6997 31.3351 32.7691 31.3598C32.8385 31.3846 32.9144 31.3841 32.9834 31.3583L34.5063 30.7438C34.8235 30.9936 35.175 31.1964 35.55 31.3458L35.7834 32.9667C35.7949 33.0397 35.8325 33.1061 35.8892 33.1536C35.9459 33.201 36.0178 33.2264 36.0917 33.225H38.548C38.6211 33.2243 38.6916 33.198 38.7475 33.1509C38.8034 33.1038 38.8411 33.0386 38.8542 32.9667L39.0875 31.3458C39.4564 31.1908 39.8032 30.9877 40.1188 30.7417L41.6542 31.3583C41.7236 31.383 41.7994 31.383 41.8689 31.3583C41.9383 31.3336 41.9971 31.2858 42.0355 31.2229L43.2646 29.0979C43.2991 29.0336 43.3104 28.9594 43.2968 28.8878C43.2831 28.8161 43.2453 28.7513 43.1896 28.7042ZM37.3188 28.925C36.9546 28.9246 36.5988 28.8162 36.2962 28.6136C35.9936 28.411 35.7579 28.1232 35.6188 27.7867C35.4797 27.4501 35.4436 27.0799 35.5149 26.7228C35.5861 26.3657 35.7617 26.0377 36.0194 25.7804C36.277 25.523 36.6052 25.3478 36.9623 25.2769C37.3195 25.206 37.6897 25.2426 38.0261 25.3821C38.3625 25.5215 38.65 25.7576 38.8523 26.0604C39.0546 26.3632 39.1625 26.7192 39.1625 27.0833C39.1628 27.3254 39.1153 27.5652 39.0227 27.7889C38.9301 28.0126 38.7943 28.2159 38.623 28.3869C38.4517 28.558 38.2483 28.6936 38.0245 28.786C37.8007 28.8783 37.5609 28.9256 37.3188 28.925Z" fill="white"/>
<path d="M20.8333 0H4.16667C3.06261 0.00329735 2.00472 0.443343 1.22403 1.22403C0.443343 2.00472 0.00329735 3.06261 0 4.16667V37.5C0.00329735 38.6041 0.443343 39.6619 1.22403 40.4426C2.00472 41.2233 3.06261 41.6634 4.16667 41.6667H29.1667C30.2707 41.6634 31.3286 41.2233 32.1093 40.4426C32.89 39.6619 33.33 38.6041 33.3333 37.5V12.5L20.8333 0ZM29.1667 37.5H4.16667V4.16667H18.75V14.5833H29.1667V37.5Z" fill="white"/>
</svg>
