<svg width="42" height="30" viewBox="0 0 42 30" fill="none" xmlns="http://www.w3.org/2000/svg">
<path fill-rule="evenodd" clip-rule="evenodd" d="M35.0625 27.5001C33.8193 27.5001 32.627 27.0062 31.7479 26.1271C30.8688 25.2481 30.375 24.0558 30.375 22.8126C30.375 21.5694 30.8688 20.3771 31.7479 19.498C32.627 18.6189 33.8193 18.1251 35.0625 18.1251C36.3057 18.1251 37.4979 18.6189 38.377 19.498C39.2561 20.3771 39.75 21.5694 39.75 22.8126C39.75 24.0558 39.2561 25.2481 38.377 26.1271C37.4979 27.0062 36.3057 27.5001 35.0625 27.5001V27.5001ZM35.0625 29.5834C33.2667 29.5834 31.5445 28.8701 30.2748 27.6003C29.005 26.3305 28.2916 24.6083 28.2916 22.8126C28.2916 21.0168 29.005 19.2947 30.2748 18.0249C31.5445 16.7551 33.2667 16.0417 35.0625 16.0417C36.8582 16.0417 38.5804 16.7551 39.8502 18.0249C41.1199 19.2947 41.8333 21.0168 41.8333 22.8126C41.8333 24.6083 41.1199 26.3305 39.8502 27.6003C38.5804 28.8701 36.8582 29.5834 35.0625 29.5834V29.5834Z" fill="white"/>
<path fill-rule="evenodd" clip-rule="evenodd" d="M26.6416 1.03966C26.5603 0.854374 26.4267 0.696792 26.2573 0.586169C26.0878 0.475547 25.8898 0.416675 25.6875 0.416748H19.9583V2.50008H25.0073L34.1083 23.2313C34.2194 23.4844 34.4264 23.683 34.6839 23.7834C34.9413 23.8838 35.2281 23.8778 35.4812 23.7667C35.7343 23.6557 35.9328 23.4486 36.0333 23.1912C36.1337 22.9337 36.1277 22.6469 36.0166 22.3938L26.6416 1.03966V1.03966ZM6.93746 27.5001C5.69426 27.5001 4.50197 27.0062 3.6229 26.1271C2.74382 25.2481 2.24996 24.0558 2.24996 22.8126C2.24996 21.5694 2.74382 20.3771 3.6229 19.498C4.50197 18.6189 5.69426 18.1251 6.93746 18.1251C8.18066 18.1251 9.37294 18.6189 10.252 19.498C11.1311 20.3771 11.625 21.5694 11.625 22.8126C11.625 24.0558 11.1311 25.2481 10.252 26.1271C9.37294 27.0062 8.18066 27.5001 6.93746 27.5001V27.5001ZM6.93746 29.5834C5.14172 29.5834 3.41953 28.8701 2.14976 27.6003C0.879979 26.3305 0.166626 24.6083 0.166626 22.8126C0.166626 21.0168 0.879979 19.2947 2.14976 18.0249C3.41953 16.7551 5.14172 16.0417 6.93746 16.0417C8.7332 16.0417 10.4554 16.7551 11.7252 18.0249C12.9949 19.2947 13.7083 21.0168 13.7083 22.8126C13.7083 24.6083 12.9949 26.3305 11.7252 27.6003C10.4554 28.8701 8.7332 29.5834 6.93746 29.5834V29.5834Z" fill="white"/>
<path fill-rule="evenodd" clip-rule="evenodd" d="M31.0312 13.6708C30.8169 13.4968 30.5422 13.4149 30.2676 13.4432C29.993 13.4716 29.7409 13.6077 29.5666 13.8219L23.1083 21.7708H6.93742C6.66115 21.7708 6.3962 21.8806 6.20085 22.0759C6.0055 22.2713 5.89575 22.5362 5.89575 22.8125C5.89575 23.0888 6.0055 23.3537 6.20085 23.5491C6.3962 23.7444 6.66115 23.8542 6.93742 23.8542H23.6041C23.759 23.8541 23.9119 23.8194 24.0518 23.7527C24.1916 23.6861 24.3148 23.589 24.4124 23.4687L31.1833 15.1354C31.3573 14.9211 31.4391 14.6465 31.4108 14.3719C31.3825 14.0972 31.2463 13.8451 31.0322 13.6708H31.0312Z" fill="white"/>
<path fill-rule="evenodd" clip-rule="evenodd" d="M28.1906 6.66675H24.8875C22.8104 6.66675 20.7925 7.35794 19.1517 8.63137C17.5108 9.9048 16.3404 11.6881 15.825 13.7001L16.8333 13.9584V15.0001H30.375V12.9167H18.3104C18.8992 11.6704 19.8301 10.617 20.9945 9.87936C22.1589 9.14167 23.509 8.75004 24.8875 8.75008H28.1906V6.66675Z" fill="white"/>
<path fill-rule="evenodd" clip-rule="evenodd" d="M13.2417 9.0417C13.0473 8.85433 12.7877 8.74976 12.5177 8.75003H3.29167C3.0154 8.75003 2.75045 8.85978 2.5551 9.05513C2.35975 9.25048 2.25 9.51543 2.25 9.7917V13.9584C2.25 14.2346 2.35975 14.4996 2.5551 14.6949C2.75045 14.8903 3.0154 15 3.29167 15H16.8333C17.0411 15.0002 17.2441 14.9383 17.4164 14.8223C17.5887 14.7062 17.7224 14.5412 17.8002 14.3486C17.878 14.156 17.8965 13.9445 17.8532 13.7413C17.8099 13.5381 17.7069 13.3525 17.5573 13.2084L13.2417 9.0417ZM12.0969 10.8334L14.2552 12.9167H4.33333V10.8334H12.0969ZM36.401 4.19482L28.4385 7.25732L29.1865 9.20107L34.7656 7.05524L35.3604 10.6261L30.0125 9.80316L29.6958 11.8625L37.8896 13.1229L36.4 4.19482H36.401ZM19.5687 23.3188L16.9646 18.6313L18.7854 17.6188L21.3896 22.3063L19.5687 23.3188Z" fill="white"/>
<path fill-rule="evenodd" clip-rule="evenodd" d="M22.5001 12.9167H13.1251C12.7147 12.9167 12.3084 12.9976 11.9292 13.1546C11.5501 13.3117 11.2056 13.5419 10.9154 13.832C10.6252 14.1222 10.395 14.4667 10.238 14.8459C10.081 15.225 10.0001 15.6314 10.0001 16.0417C10.0001 16.4521 10.081 16.8585 10.238 17.2376C10.395 17.6168 10.6252 17.9613 10.9154 18.2515C11.2056 18.5416 11.5501 18.7718 11.9292 18.9289C12.3084 19.0859 12.7147 19.1667 13.1251 19.1667H19.3751C20.2039 19.1667 20.9988 18.8375 21.5848 18.2515C22.1709 17.6654 22.5001 16.8705 22.5001 16.0417V12.9167ZM20.4168 15.0001V16.0417C20.4168 16.318 20.307 16.583 20.1117 16.7783C19.9163 16.9737 19.6514 17.0834 19.3751 17.0834H13.1251C12.8489 17.0834 12.5839 16.9737 12.3886 16.7783C12.1932 16.583 12.0835 16.318 12.0835 16.0417C12.0835 15.7655 12.1932 15.5005 12.3886 15.3052C12.5839 15.1098 12.8489 15.0001 13.1251 15.0001H20.4168Z" fill="white"/>
</svg>
