<svg width="33" height="36" viewBox="0 0 33 36" fill="none" xmlns="http://www.w3.org/2000/svg">
<path d="M22.5 25.5V33H2.5V3H15V0.5H2.5C1.83696 0.5 1.20107 0.763392 0.732233 1.23223C0.263392 1.70107 0 2.33696 0 3V33C0 33.663 0.263392 34.2989 0.732233 34.7678C1.20107 35.2366 1.83696 35.5 2.5 35.5H22.5C23.163 35.5 23.7989 35.2366 24.2678 34.7678C24.7366 34.2989 25 33.663 25 33V25.5H22.5Z" fill="white"/>
<path d="M31.925 5.19989L27.8 1.07489C27.4261 0.708434 26.9235 0.503174 26.4 0.503174C25.8765 0.503174 25.3739 0.708434 25 1.07489L7.5 18.5749V25.4999H14.4125L31.9125 7.99989C32.279 7.62603 32.4842 7.12339 32.4842 6.59989C32.4842 6.07638 32.279 5.57375 31.9125 5.19989H31.925ZM13.375 22.9999H10V19.6249L21.8 7.81239L25.1875 11.1999L13.375 22.9999ZM26.95 9.43739L23.5625 6.04989L26.4 3.21239L29.7875 6.59989L26.95 9.43739Z" fill="white"/>
</svg>
