<svg width="35" height="36" viewBox="0 0 35 36" fill="none" xmlns="http://www.w3.org/2000/svg">
<path d="M29.4668 5.69328C27.8785 4.09303 25.9879 2.82454 23.9049 1.96159C21.8219 1.09863 19.5881 0.658444 17.3335 0.666616C14.3193 0.669557 11.3588 1.46437 8.74849 2.97146C6.13817 4.47855 3.96962 6.64502 2.46002 9.2539C0.950429 11.8628 0.152775 14.8225 0.146942 17.8366C0.141108 20.8508 0.927302 23.8136 2.42679 26.4283L0.00012207 35.3333L9.10012 32.9499C11.6129 34.3479 14.4364 35.0929 17.3118 35.1166C21.8827 35.1168 26.2687 33.3114 29.515 30.0935C32.7613 26.8756 34.6051 22.5057 34.6451 17.9349C34.6299 15.6541 34.1646 13.3987 33.276 11.298C32.3874 9.19735 31.0929 7.2927 29.4668 5.69328ZM17.3335 32.1483C14.7718 32.1499 12.257 31.4614 10.0535 30.1549L9.53345 29.8299L4.13846 31.2599L5.56846 25.9949L5.22179 25.4533C3.3785 22.4777 2.69056 18.9294 3.28831 15.4806C3.88605 12.0318 5.72795 8.92196 8.46508 6.74027C11.2022 4.55858 14.6445 3.45654 18.1397 3.64293C21.635 3.82932 24.9405 5.2912 27.4301 7.75161C30.1515 10.4127 31.7093 14.0425 31.7635 17.8483C31.7292 21.6528 30.1938 25.2898 27.4913 27.9679C24.7889 30.646 21.1381 32.1484 17.3335 32.1483ZM25.1551 21.4449C24.7218 21.2283 22.6201 20.1883 22.2301 20.0583C21.8401 19.9283 21.5368 19.8416 21.2551 20.2749C20.8312 20.8558 20.3755 21.4128 19.8901 21.9433C19.6518 22.2466 19.3918 22.2683 18.9585 21.9433C16.4879 20.9669 14.4294 19.1687 13.1301 16.8516C12.6751 16.0933 13.5635 16.1366 14.3868 14.5116C14.4476 14.3945 14.4793 14.2644 14.4793 14.1324C14.4793 14.0005 14.4476 13.8704 14.3868 13.7533C14.3868 13.5366 13.4118 11.4133 13.0651 10.5683C12.7185 9.72328 12.3718 9.85328 12.0901 9.83161H11.2451C11.0262 9.83497 10.8105 9.88504 10.6125 9.97845C10.4144 10.0719 10.2386 10.2065 10.0968 10.3733C9.61063 10.846 9.23144 11.4174 8.98477 12.0491C8.73809 12.6807 8.62967 13.3579 8.66679 14.0349C8.80264 15.6558 9.41306 17.2007 10.4218 18.4766C12.2682 21.2408 14.7986 23.48 17.7668 24.9766C19.3235 25.8854 21.1327 26.2655 22.9235 26.0599C23.5198 25.9416 24.0845 25.6991 24.581 25.3482C25.0775 24.9973 25.4945 24.5459 25.8051 24.0233C26.0928 23.3855 26.1834 22.6762 26.0651 21.9866C25.8701 21.7699 25.5885 21.6616 25.1551 21.4449Z" fill="white"/>
</svg>
