<svg width="329" height="74" viewBox="0 0 329 74" fill="none" xmlns="http://www.w3.org/2000/svg">
<path d="M8.07156 41.88C8.33823 44.3867 9.45823 46.4933 11.4316 48.2C13.4049 49.9067 15.9649 50.76 19.1116 50.76C22.6316 50.76 25.3782 49.96 27.3516 48.36C29.3249 46.76 30.3116 44.7067 30.3116 42.2C30.3116 39.8533 29.6982 37.9067 28.4716 36.36C27.2982 34.76 25.8316 33.5067 24.0716 32.6C22.3116 31.64 19.8849 30.5467 16.7916 29.32C13.4849 28.04 10.8182 26.8667 8.79156 25.8C6.81823 24.68 5.13823 23.1867 3.75156 21.32C2.3649 19.4 1.67156 16.9733 1.67156 14.04C1.67156 11.6933 2.33823 9.48 3.67156 7.4C5.0049 5.26667 7.03156 3.53333 9.75156 2.2C12.4716 0.866663 15.8049 0.199997 19.7516 0.199997C22.3649 0.199997 24.5249 0.386664 26.2316 0.759999C27.9382 1.13333 29.6716 1.74666 31.4316 2.6L29.1116 9.48C25.9649 8.2 22.8716 7.56 19.8316 7.56C16.5249 7.56 13.9649 8.17333 12.1516 9.4C10.3916 10.5733 9.51156 12.1733 9.51156 14.2C9.51156 15.5333 9.99156 16.7067 10.9516 17.72C11.9116 18.7333 13.0849 19.6133 14.4716 20.36C15.9116 21.0533 17.9382 21.96 20.5516 23.08C24.2316 24.5733 27.2449 26.0133 29.5916 27.4C31.9916 28.7333 34.0449 30.5733 35.7516 32.92C37.4582 35.2133 38.3116 38.0933 38.3116 41.56C38.3116 46.36 36.7382 50.28 33.5916 53.32C30.4449 56.36 25.6449 57.88 19.1916 57.88C15.2449 57.88 11.8582 57.16 9.03156 55.72C6.25823 54.2267 4.1249 52.3333 2.63156 50.04C1.19156 47.6933 0.418229 45.2667 0.311563 42.76L8.07156 41.88ZM52.5153 8.2C51.4486 8.2 50.4886 7.8 49.6353 7C48.8353 6.14666 48.4353 5.18666 48.4353 4.12C48.4353 3.10667 48.8353 2.2 49.6353 1.4C50.4886 0.599997 51.4486 0.199997 52.5153 0.199997C53.582 0.199997 54.4886 0.599997 55.2353 1.4C56.0353 2.14666 56.4353 3.05333 56.4353 4.12C56.4353 5.18666 56.0353 6.14666 55.2353 7C54.4353 7.8 53.5286 8.2 52.5153 8.2ZM48.6753 16.92H55.9553V57H48.6753V16.92ZM111.7 31.56C111.7 25.9067 109.594 23.08 105.38 23.08C103.674 23.08 101.78 23.48 99.7003 24.28L97.7803 25.08C97.9936 25.5067 98.1536 26.0933 98.2603 26.84C98.4203 27.5333 98.5003 28.2 98.5003 28.84V57H91.2203V31.72C91.2203 28.84 90.5003 26.68 89.0603 25.24C87.6203 23.8 85.7536 23.08 83.4603 23.08C81.0603 23.08 78.687 23.7733 76.3403 25.16V57H69.0603V16.92H75.7003L76.1803 18.2C78.6336 16.92 81.2203 16.28 83.9403 16.28C85.807 16.28 87.567 16.6 89.2203 17.24C90.927 17.88 92.3936 18.84 93.6203 20.12C94.367 19.6933 95.487 19.1067 96.9803 18.36C100.127 16.92 103.167 16.2 106.1 16.2C109.887 16.2 112.98 17.3733 115.38 19.72C117.78 22.0133 118.98 25.2133 118.98 29.32V57H111.7V31.56ZM128.201 16.92H135.161L135.321 18.68C136.121 17.9867 137.268 17.4267 138.761 17C140.254 16.52 141.721 16.28 143.161 16.28C148.121 16.28 151.881 17.72 154.441 20.6C157.054 23.48 158.361 27.2133 158.361 31.8V42.92C158.361 47.7733 157.001 51.5067 154.281 54.12C151.561 56.68 147.961 57.96 143.481 57.96C141.508 57.96 139.961 57.7733 138.841 57.4C137.721 57.08 136.601 56.52 135.481 55.72V72.04L128.201 73.8V16.92ZM151.081 31.48C151.081 28.76 150.414 26.7333 149.081 25.4C147.748 24.0133 145.881 23.32 143.481 23.32C141.081 23.32 139.161 23.9867 137.721 25.32C136.281 26.6533 135.534 28.5733 135.481 31.08V42.6C135.481 45.16 136.121 47.1867 137.401 48.68C138.734 50.12 140.761 50.84 143.481 50.84C146.094 50.84 148.014 50.12 149.241 48.68C150.468 47.1867 151.081 44.92 151.081 41.88V31.48ZM167.576 0.999996H174.856V57H167.576V0.999996ZM191.578 8.2C190.511 8.2 189.551 7.8 188.698 7C187.898 6.14666 187.498 5.18666 187.498 4.12C187.498 3.10667 187.898 2.2 188.698 1.4C189.551 0.599997 190.511 0.199997 191.578 0.199997C192.644 0.199997 193.551 0.599997 194.298 1.4C195.098 2.14666 195.498 3.05333 195.498 4.12C195.498 5.18666 195.098 6.14666 194.298 7C193.498 7.8 192.591 8.2 191.578 8.2ZM187.738 16.92H195.018V57H187.738V16.92ZM222.203 3.56C221.243 3.45333 220.549 3.4 220.123 3.4C217.456 3.4 215.376 4.22666 213.883 5.88C212.443 7.48 211.723 9.88 211.723 13.08V16.92H221.723L220.203 20.36H211.723V57H208.123V13.08C208.123 8.65333 209.243 5.4 211.483 3.32C213.723 1.24 216.496 0.199997 219.803 0.199997C220.816 0.199997 221.803 0.279998 222.763 0.439999L222.203 3.56ZM224.627 31.72C224.627 26.6533 225.907 22.7867 228.467 20.12C231.081 17.4 234.814 16.04 239.667 16.04C244.307 16.04 247.934 17.4533 250.547 20.28C253.161 23.0533 254.467 26.8667 254.467 31.72V42.28C254.467 46.76 253.241 50.4667 250.787 53.4C248.334 56.3333 244.627 57.8 239.667 57.8C234.707 57.8 230.947 56.3333 228.387 53.4C225.881 50.4133 224.627 46.7067 224.627 42.28V31.72ZM228.227 42.84C228.227 46.2533 229.214 49.08 231.187 51.32C233.214 53.5067 236.041 54.6 239.667 54.6C243.294 54.6 246.067 53.5067 247.987 51.32C249.907 49.1333 250.867 46.3067 250.867 42.84V31.64C250.867 27.48 249.827 24.3867 247.747 22.36C245.721 20.3333 243.027 19.32 239.667 19.32C236.201 19.32 233.427 20.3333 231.347 22.36C229.267 24.3333 228.227 27.4267 228.227 31.64V42.84ZM261.033 31.72C261.033 26.6533 262.313 22.7867 264.873 20.12C267.487 17.4 271.22 16.04 276.073 16.04C280.713 16.04 284.34 17.4533 286.953 20.28C289.567 23.0533 290.873 26.8667 290.873 31.72V42.28C290.873 46.76 289.647 50.4667 287.193 53.4C284.74 56.3333 281.033 57.8 276.073 57.8C271.113 57.8 267.353 56.3333 264.793 53.4C262.287 50.4133 261.033 46.7067 261.033 42.28V31.72ZM264.633 42.84C264.633 46.2533 265.62 49.08 267.593 51.32C269.62 53.5067 272.447 54.6 276.073 54.6C279.7 54.6 282.473 53.5067 284.393 51.32C286.313 49.1333 287.273 46.3067 287.273 42.84V31.64C287.273 27.48 286.233 24.3867 284.153 22.36C282.127 20.3333 279.433 19.32 276.073 19.32C272.607 19.32 269.833 20.3333 267.753 22.36C265.673 24.3333 264.633 27.4267 264.633 31.64V42.84ZM328.88 57L324.48 57.4C321.013 57.7733 318.293 57.96 316.32 57.96C314.346 57.96 312.48 57.7733 310.72 57.4C309.013 57.0267 307.306 56.4133 305.6 55.56C303.68 54.6 302.16 53.1867 301.04 51.32C299.92 49.4533 299.36 47.16 299.36 44.44V29.32C299.36 23.72 301.626 19.88 306.16 17.8C308.346 16.7867 311.013 16.28 314.16 16.28C316.24 16.28 318.24 16.52 320.16 17C322.133 17.48 323.84 18.1467 325.28 19V0.999996H328.88V57ZM325.28 22.2C323.84 21.4 322.106 20.76 320.08 20.28C318.053 19.7467 316.08 19.48 314.16 19.48C310.906 19.48 308.213 20.28 306.08 21.88C303.946 23.48 302.88 26.04 302.88 29.56V44.52C302.88 48.0933 304.133 50.68 306.64 52.28C309.2 53.8267 312.586 54.6 316.8 54.6C319.36 54.6 322.186 54.3333 325.28 53.8V22.2Z" fill="white"/>
</svg>
